<?xml version="1.0" standalone="no"?>
<!DOCTYPE svg PUBLIC "-//W3C//DTD SVG 20010904//EN"
 "http://www.w3.org/TR/2001/REC-SVG-20010904/DTD/svg10.dtd">
<svg version="1.0" xmlns="http://www.w3.org/2000/svg"
 width="788.000000pt" height="788.000000pt" viewBox="0 0 788.000000 788.000000"
 preserveAspectRatio="xMidYMid meet">
<metadata>
Created by potrace 1.11, written by Peter Selinger 2001-2013
</metadata>
<g transform="translate(0.000000,788.000000) scale(0.100000,-0.100000)"
fill="#000000" stroke="none">
<path d="M762 7253 c-18 -9 -43 -30 -55 -47 l-22 -31 0 -3155 0 -3155 22 -31
c13 -17 38 -39 57 -48 31 -15 297 -16 3166 -16 2869 0 3135 1 3166 16 19 9 44
31 57 48 l22 31 0 3155 0 3155 -22 31 c-13 17 -38 39 -57 48 -31 15 -297 16
-3168 16 -2866 0 -3136 -2 -3166 -17z m6218 -3233 l0 -3050 -3050 0 -3050 0 0
3050 0 3050 3050 0 3050 0 0 -3050z"/>
<path d="M1797 6253 c-4 -3 -7 -321 -7 -705 l0 -698 518 2 517 3 3 132 3 133
-353 2 -353 3 -3 568 -2 567 -158 0 c-87 0 -162 -3 -165 -7z"/>
<path d="M5885 6111 c-11 -5 -953 -943 -2094 -2084 l-2074 -2075 6 -43 c8 -62
53 -104 112 -104 l45 0 2070 2070 c1463 1463 2073 2079 2081 2102 25 76 -73
166 -146 134z"/>
<path d="M4927 3053 c-4 -3 -7 -321 -7 -705 l0 -698 165 0 165 0 2 193 3 192
145 3 145 3 135 -196 135 -195 178 0 c140 0 177 3 171 13 -9 15 -86 126 -202
293 -51 72 -92 136 -92 141 0 5 12 15 27 22 78 36 154 116 200 210 34 68 37
83 41 181 2 58 0 129 -6 157 -42 192 -193 326 -422 373 -83 17 -137 20 -436
20 -187 0 -344 -3 -347 -7z m720 -287 c68 -22 110 -58 139 -121 62 -132 -3
-278 -143 -322 -52 -16 -322 -30 -367 -19 l-26 6 0 234 c0 128 3 236 8 240 14
15 333 0 389 -18z"/>
</g>
</svg>
